<svg width="320" height="294" viewBox="0 0 320 294" fill="none" xmlns="http://www.w3.org/2000/svg">
<path d="M276.942 -251.432C311.813 -217.141 315.751 -142.541 344.49 -91.1885C373.229 -39.8359 426.74 -11.8421 443.667 32.7688C460.566 77.2684 440.85 138.274 406.107 191.934C371.444 245.44 321.753 291.601 272.883 293.201C223.902 294.845 175.714 251.816 120.737 233.087C65.7309 214.246 3.93698 219.705 -33.5432 192.666C-71.1049 165.781 -84.4345 106.552 -69.7583 54.7123C-55.0821 2.87251 -12.5112 -41.5358 22.1512 -95.042C56.8951 -148.702 83.6194 -211.417 129.954 -245.75C176.289 -280.082 242.042 -285.835 276.942 -251.432Z" fill="url(#paint0_linear_44_3759)"/>
<defs>
<linearGradient id="paint0_linear_44_3759" x1="-56.6167" y1="-60.5925" x2="330.104" y2="222.244" gradientUnits="userSpaceOnUse">
<stop stop-color="#FEA653"/>
<stop offset="1" stop-color="#F8B653"/>
</linearGradient>
</defs>
</svg>
